<svg xmlns="http://www.w3.org/2000/svg" viewBox="0 0 210 230" role="img" aria-labelledby="title description">
<title id="title">Amazon Castanheira</title><desc id="description">A towering Brazil nut tree rising above the forest canopy with seed pods.</desc>
<defs><linearGradient id="castleaf" x1="0" y1="0" x2="0" y2="1"><stop stop-color="#8dcc72"/><stop offset="1" stop-color="#2f7746"/></linearGradient></defs>
<ellipse cx="105" cy="213" rx="70" ry="11" fill="#173925" opacity=".16"/>
<path d="M84 207c15-47 11-91 18-139h17c-2 48 4 94 14 139z" fill="#846047"/>
<path d="M105 132 50 82m66 33 48-48m-57 68-44-22m55 16 39-24" fill="none" stroke="#846047" stroke-width="12" stroke-linecap="round"/>
<g fill="url(#castleaf)"><circle cx="51" cy="76" r="33"/><circle cx="80" cy="45" r="40"/><circle cx="124" cy="42" r="42"/><circle cx="163" cy="73" r="35"/><circle cx="145" cy="104" r="38"/><circle cx="100" cy="98" r="47"/><circle cx="60" cy="112" r="31"/></g>
<g fill="#795237"><circle cx="75" cy="97" r="8"/><circle cx="132" cy="87" r="8"/><circle cx="111" cy="68" r="7"/></g>
<g fill="#a7d992"><circle cx="64" cy="61" r="5"/><circle cx="98" cy="30" r="6"/><circle cx="142" cy="44" r="5"/></g>
</svg>