<svg xmlns="http://www.w3.org/2000/svg" viewBox="0 0 210 230" role="img" aria-labelledby="title description">
<title id="title">Ancient Jequitibá</title><desc id="description">A monumental Brazilian jequitibá with buttress roots and a high rounded crown.</desc>
<defs><linearGradient id="jtrunk" x1="0" y1="0" x2="1" y2="1"><stop stop-color="#a9794f"/><stop offset="1" stop-color="#5f3c2c"/></linearGradient><linearGradient id="jleaf" x1="0" y1="0" x2="0" y2="1"><stop stop-color="#8ed081"/><stop offset="1" stop-color="#2f7d4a"/></linearGradient></defs>
<ellipse cx="105" cy="211" rx="76" ry="12" fill="#173d2a" opacity=".16"/>
<path d="M70 205c16-27 21-58 20-101h30c-3 45 5 77 23 101l-28-8-10 11-11-12z" fill="url(#jtrunk)"/>
<path d="M91 136 45 91m70 38 50-52m-60 80 50-25m-62 26-39-27" fill="none" stroke="#6e4732" stroke-width="13" stroke-linecap="round"/>
<g fill="url(#jleaf)"><circle cx="48" cy="84" r="35"/><circle cx="79" cy="50" r="42"/><circle cx="124" cy="45" r="45"/><circle cx="165" cy="78" r="37"/><circle cx="148" cy="112" r="39"/><circle cx="99" cy="104" r="48"/><circle cx="57" cy="118" r="34"/></g>
<path d="M72 204 48 214l38-4 14-17m38 11 24 10-37-4-12-17" fill="#6e4732" opacity=".9"/>
<g fill="#b9e4a8" opacity=".72"><circle cx="61" cy="66" r="5"/><circle cx="99" cy="34" r="6"/><circle cx="141" cy="50" r="5"/><circle cx="159" cy="91" r="5"/><circle cx="83" cy="102" r="6"/></g>
</svg>