<svg xmlns="http://www.w3.org/2000/svg" viewBox="0 0 195 215" role="img" aria-labelledby="title description">
<title id="title">Pau-brasil Red Heart</title><desc id="description">A Brazilian pau-brasil with airy compound foliage and warm red heartwood accents.</desc>
<ellipse cx="98" cy="199" rx="63" ry="11" fill="#243c2c" opacity=".16"/>
<path d="M80 192c13-42 11-74 18-111 14 36 15 69 19 111z" fill="#8a5239"/>
<path d="M98 142 54 92m50 28 38-50m-45 75-35-18m45 5 35-21" fill="none" stroke="#8a5239" stroke-width="9" stroke-linecap="round"/>
<g fill="#4d9b63"><ellipse cx="49" cy="83" rx="26" ry="20"/><ellipse cx="76" cy="57" rx="29" ry="23"/><ellipse cx="115" cy="53" rx="31" ry="24"/><ellipse cx="149" cy="77" rx="27" ry="21"/><ellipse cx="127" cy="99" rx="30" ry="24"/><ellipse cx="84" cy="96" rx="34" ry="27"/><ellipse cx="56" cy="112" rx="25" ry="20"/></g>
<g fill="#9ad29f"><ellipse cx="42" cy="77" rx="8" ry="4" transform="rotate(-25 42 77)"/><ellipse cx="68" cy="51" rx="8" ry="4" transform="rotate(20 68 51)"/><ellipse cx="108" cy="46" rx="8" ry="4"/><ellipse cx="150" cy="72" rx="8" ry="4" transform="rotate(-20 150 72)"/><ellipse cx="124" cy="92" rx="8" ry="4" transform="rotate(25 124 92)"/></g>
<path d="M91 188c6-20 8-37 8-55 4 20 5 38 9 56-6 5-11 5-17-1z" fill="#b83a2d" opacity=".74"/>
<g fill="#f6d365"><circle cx="62" cy="96" r="3"/><circle cx="138" cy="86" r="3"/><circle cx="91" cy="65" r="3"/></g>
</svg>