<svg xmlns="http://www.w3.org/2000/svg" viewBox="0 0 190 205" role="img" aria-labelledby="title description">
  <title id="title">Tea Cloud Tree</title><desc id="description">A calm tree with layered cloud-shaped foliage inspired by ink painting.</desc>
  <defs><linearGradient id="tea" x1="0" y1="0" x2="0" y2="1"><stop stop-color="#d9f99d"/><stop offset="1" stop-color="#65a30d"/></linearGradient></defs>
  <ellipse cx="95" cy="190" rx="57" ry="10" fill="#1c1917" opacity=".15"/>
  <path d="M82 184c9-44 6-73 14-112 9 39 7 69 13 112z" fill="#72513d"/>
  <path d="m95 127-39-37m43 20 39-34m-44 66-32-14m42 6 34-17" stroke="#72513d" stroke-width="9" stroke-linecap="round"/>
  <g fill="url(#tea)">
    <path d="M23 84c4-20 21-30 39-26 8-20 36-26 51-10 18-9 42 2 44 23 18 1 29 14 28 31H25c-8-5-9-12-2-18z"/>
    <path d="M39 108c5-14 18-21 32-18 9-12 30-14 42-3 17-7 36 3 39 20 11 1 18 8 19 17H36c-5-6-4-12 3-16z" fill="#84cc16" opacity=".8"/>
  </g>
  <path d="M45 79c29-8 65-8 101 1" fill="none" stroke="#f7fee7" stroke-width="5" stroke-linecap="round" opacity=".45"/>
</svg>
