<?xml version="1.0" encoding="UTF-8" standalone="no"?>
<svg
   version="1.1"
   width="512"
   height="512"
   id="svg36"
   sodipodi:docname="icon.svg"
   inkscape:version="1.4.2 (ebf0e940d0, 2025-05-08)"
   inkscape:export-filename="icon-1024.png"
   inkscape:export-xdpi="96"
   inkscape:export-ydpi="96"
   xmlns:inkscape="http://www.inkscape.org/namespaces/inkscape"
   xmlns:sodipodi="http://sodipodi.sourceforge.net/DTD/sodipodi-0.dtd"
   xmlns="http://www.w3.org/2000/svg"
   xmlns:svg="http://www.w3.org/2000/svg">
  <defs
     id="defs36" />
  <sodipodi:namedview
     id="namedview36"
     pagecolor="#ffffff"
     bordercolor="#cccccc"
     borderopacity="1"
     inkscape:showpageshadow="0"
     inkscape:pageopacity="1"
     inkscape:pagecheckerboard="0"
     inkscape:deskcolor="#d1d1d1"
     inkscape:zoom="0.66603905"
     inkscape:cx="500.72139"
     inkscape:cy="460.18323"
     inkscape:window-width="1896"
     inkscape:window-height="1037"
     inkscape:window-x="0"
     inkscape:window-y="0"
     inkscape:window-maximized="0"
     inkscape:current-layer="svg36">
    <inkscape:page
       x="0"
       y="0"
       width="512"
       height="512"
       id="page2"
       margin="0"
       bleed="0" />
  </sodipodi:namedview>
  <g
     id="g37"
     transform="translate(-263.9354,-90.382434)">
    <g
       id="g36">
      <path
         d="m 671.33204,345.70165 c 1.25425,1.03276 2.4847,2.09524 3.6875,3.1875 0.55816,0.50402 1.11633,1.00805 1.69141,1.52734 26.90525,27.52951 32.86933,75.45978 32.52343,111.78125 -0.52099,22.95911 -7.58144,46.46334 -23.21484,63.69141 -0.73863,0.83145 -1.47727,1.66289 -2.23828,2.51953 -18.47009,19.67926 -46.38296,28.96938 -72.84766,29.81641 -30.01975,0.37132 -67.76401,-3.31196 -91.72656,-23.83594 -10.22657,-10.29771 -14.55019,-21.37198 -14.75,-35.8125 0.20748,-24.7684 8.87176,-49.28904 20.58887,-70.89209 0.93864,-1.73089 1.85121,-3.47584 2.76269,-5.22119 9.83526,-18.14292 23.12132,-35.55195 39.21094,-48.57422 1.47146,-1.22783 1.47146,-1.22783 2.97266,-2.48047 17.66501,-14.50925 38.67995,-27.0146 61.02734,-32.51953 0.7541,-0.1882 1.5082,-0.37641 2.28516,-0.57031 13.92839,-2.2045 26.2851,-0.76532 38.02734,7.38281 z"
         fill="#7662f8"
         id="path2" />
      <path
         d="m 375.13284,134.74871 c 0.81252,-0.003 1.62503,-0.006 2.46217,-0.009 2.72038,-0.009 5.44071,-0.0102 8.16111,-0.0117 1.95168,-0.005 3.90337,-0.01 5.85505,-0.0151 5.302,-0.0131 10.60398,-0.0196 15.90598,-0.024 3.31531,-0.003 6.63061,-0.007 9.94592,-0.0115 10.38079,-0.0137 20.76157,-0.0233 31.14237,-0.0272 11.96766,-0.004 23.9352,-0.022 35.90282,-0.051 9.25967,-0.0216 18.5193,-0.0317 27.77898,-0.033 5.52577,-0.001 11.05144,-0.007 16.57718,-0.0248 5.20306,-0.0165 10.40593,-0.0186 15.60901,-0.01 1.90262,7.6e-4 3.80526,-0.004 5.70786,-0.0135 18.08166,-0.0887 31.52502,2.1059 45.00622,15.18357 1.68368,1.71895 3.35685,3.44824 5.01953,5.1875 1.67856,1.73153 3.35951,3.46074 5.04297,5.1875 0.72599,0.75668 1.45197,1.51336 2.19995,2.29297 2.08709,2.04643 4.20297,3.96048 6.4126,5.86914 3.99008,3.45979 7.73046,7.11107 11.43823,10.86914 0.65779,0.66157 1.31557,1.32314 1.99329,2.00476 2.77613,2.79227 5.54618,5.59055 8.31677,8.38831 2.04036,2.05859 4.08384,4.11406 6.12744,6.16943 0.6117,0.62 1.2234,1.24 1.85364,1.87879 3.73117,3.75191 7.59258,7.28582 11.59641,10.74475 4.13486,3.60199 7.99577,7.49134 11.8937,11.34521 0.85916,0.83016 1.71832,1.66031 2.60352,2.51563 8.79236,8.70503 14.75489,17.86178 18.33398,29.73437 0.17765,0.56781 0.35529,1.13563 0.53832,1.72064 0.62417,3.08158 0.58086,6.01486 0.57521,9.15924 1.4e-4,0.68334 2.9e-4,1.36667 4.4e-4,2.07071 -6.9e-4,2.25088 -0.008,4.50167 -0.0163,6.75254 -0.002,1.5637 -0.003,3.1274 -0.004,4.6911 -0.004,4.10994 -0.0136,8.21984 -0.0247,12.32977 -0.0102,4.19616 -0.0148,8.39233 -0.0198,12.5885 -0.0107,8.22918 -0.0278,16.45834 -0.0488,24.6875 -4.54644,-1.49547 -9.00061,-3.14559 -13.4375,-4.9375 -0.6297,-0.25201 -1.25941,-0.50402 -1.9082,-0.76367 -4.24754,-1.70687 -8.44354,-3.49422 -12.6543,-5.29883 0,-19.8 0,-39.6 0,-60 -4.64836,0.0348 -9.29672,0.0696 -14.08593,0.10547 -2.96226,0.0153 -5.92446,0.0298 -8.88672,0.041 -4.69168,0.0179 -9.38317,0.0389 -14.07471,0.0798 -3.78664,0.0328 -7.57308,0.0506 -11.35985,0.0583 -1.43755,0.005 -2.87509,0.0162 -4.31256,0.0326 -12.55349,0.1367 -23.08748,-1.5051 -33.28023,-9.31719 -7.02776,-7.28414 -11.13401,-16.06307 -11.11352,-26.14551 7e-5,-1.24098 1.5e-4,-2.48196 2.3e-4,-3.76055 0.005,-1.34902 0.0103,-2.69804 0.0156,-4.04706 0.002,-1.38434 0.003,-2.76868 0.004,-4.15302 0.004,-3.63647 0.0136,-7.2729 0.0247,-10.90936 0.0102,-3.71358 0.0148,-7.42716 0.0198,-11.14075 0.0107,-7.28127 0.0278,-14.5625 0.0488,-21.84375 -25.04326,0.0372 -50.08639,0.097 -75.12954,0.18391 -11.62796,0.0398 -23.25586,0.0722 -34.88388,0.0871 -10.13495,0.013 -20.26974,0.0399 -30.4046,0.0836 -5.36639,0.0226 -10.73261,0.0383 -16.09905,0.0373 -5.05207,-7.5e-4 -10.10373,0.0172 -15.15569,0.0493 -1.8531,0.008 -3.70624,0.0102 -5.55934,0.005 -2.53351,-0.007 -5.06572,0.0113 -7.59909,0.0352 -0.73056,-0.008 -1.46112,-0.0155 -2.21383,-0.0235 -5.47991,0.0914 -8.52357,1.55202 -12.95498,4.54249 -3.54206,3.89627 -4.12485,7.28236 -4.13422,12.43806 -0.004,1.13663 -0.009,2.27326 -0.0135,3.44433 1.9e-4,1.25425 3.7e-4,2.5085 5.6e-4,3.80076 -0.003,1.34158 -0.007,2.68315 -0.0111,4.02472 -0.01,3.69469 -0.0137,7.38937 -0.0164,11.08407 -0.004,3.98174 -0.0135,7.96347 -0.0222,11.9452 -0.0198,9.61993 -0.0298,19.23986 -0.0387,28.8598 -0.004,4.52917 -0.01,9.05835 -0.015,13.58752 -0.017,15.05427 -0.0315,30.10853 -0.0387,45.1628 -0.002,3.90728 -0.004,7.81456 -0.006,11.72183 -4.8e-4,0.97115 -9.7e-4,1.94229 -0.001,2.94287 -0.008,15.73397 -0.0336,31.46786 -0.0661,47.20179 -0.0331,16.15027 -0.0511,32.30051 -0.0543,48.45081 -0.002,9.06919 -0.0109,18.13827 -0.0365,27.20743 -0.0217,7.72333 -0.0298,15.44653 -0.02,23.16989 0.005,3.94027 0.003,7.88024 -0.0168,11.82047 -0.0176,3.6094 -0.0166,7.21831 -10e-4,10.82772 0.003,1.91963 -0.0127,3.83927 -0.0296,5.75883 0.0521,6.98334 0.67738,11.64988 4.52099,17.5511 5.55885,4.41663 10.39138,4.57841 17.32226,4.53003 1.01391,0.009 2.02781,0.0175 3.07244,0.0265 3.33736,0.0243 6.6741,0.021 10.01155,0.0177 2.32736,0.0125 4.65471,0.0268 6.98205,0.0429 6.11947,0.038 12.23877,0.0532 18.35834,0.0628 9.79431,0.0197 19.5885,0.0767 29.38268,0.12877 3.41609,0.0153 6.83212,0.0225 10.24824,0.0281 2.10006,0.007 4.20011,0.0141 6.30017,0.0213 0.94566,-5.3e-4 1.89133,-0.001 2.86565,-0.002 4.92579,0.0224 9.60009,0.30796 14.45661,1.14345 0.29133,0.81082 0.58266,1.62164 0.88282,2.45703 2.48384,6.7095 5.24179,12.98588 8.78515,19.20313 1.18664,2.08445 2.26923,4.19074 3.33203,6.33984 -16.75988,0.0936 -33.51967,0.16408 -50.27974,0.20725 -7.7829,0.0206 -15.56563,0.0486 -23.34843,0.0945 -6.78752,0.04 -13.57493,0.0657 -20.36257,0.0746 -3.5904,0.005 -7.18046,0.0173 -10.77075,0.0466 -4.01886,0.0325 -8.03714,0.033 -12.05613,0.0312 -1.17605,0.0144 -2.3521,0.0288 -3.56378,0.0436 -11.26173,-0.0558 -20.13309,-3.06156 -28.61859,-10.49768 -0.59426,-0.47824 -1.18852,-0.95648 -1.80078,-1.44922 -7.65337,-6.737 -12.55691,-17.60325 -14.19922,-27.55078 -0.2868,-4.52561 -0.2742,-9.04117 -0.2607,-13.57467 -0.003,-1.37747 -0.007,-2.75493 -0.0116,-4.13239 -0.0103,-3.77077 -0.008,-7.54145 -0.004,-11.31223 0.002,-4.07236 -0.007,-8.14469 -0.014,-12.21704 -0.0127,-7.97262 -0.0145,-15.94521 -0.0122,-23.91784 0.002,-6.48142 3e-5,-12.96283 -0.004,-19.44425 -5.9e-4,-0.923 -0.001,-1.846 -0.002,-2.79697 -0.001,-1.87517 -0.002,-3.75034 -0.004,-5.6255 -0.0109,-17.57958 -0.009,-35.15913 -0.003,-52.73871 0.005,-16.07501 -0.006,-32.14996 -0.0251,-48.22496 -0.0194,-16.51431 -0.0276,-33.02859 -0.0239,-49.54291 0.002,-9.26812 -5.7e-4,-18.5362 -0.0147,-27.80431 -0.0119,-7.89003 -0.0133,-15.77998 -0.001,-23.67002 0.006,-4.02353 0.007,-8.0469 -0.005,-12.07042 -0.0109,-3.68758 -0.008,-7.37488 0.006,-11.06244 0.004,-1.95667 -0.007,-3.91336 -0.0183,-5.87 0.0778,-12.72179 3.29111,-23.10712 11.83407,-32.74534 0.84562,-0.7425 1.69125,-1.485 2.5625,-2.25 0.50016,-0.49113 1.00031,-0.98226 1.51562,-1.48828 8.07895,-7.60668 17.78882,-9.66411 28.59758,-9.65171 z"
         fill="#6e5df9"
         id="path3" />
      <path
         d="m 653.48048,368.24462 c 4.97651,4.76323 7.29307,7.54507 7.85156,14.58203 -0.11221,3.96498 -1.12507,6.70324 -3.3125,10.0625 -3.55479,3.35391 -7.74718,4.3156 -12.3125,5.6875 -13.81489,4.40351 -25.50644,11.03429 -36.6875,20.3125 -0.52303,0.43264 -1.04607,0.86528 -1.58496,1.31104 -23.51713,19.73885 -40.68845,50.20232 -43.47754,80.93896 -0.0429,0.70294 -0.0857,1.40589 -0.12988,2.13013 -0.3658,4.73643 -1.34935,7.33542 -4.80762,10.61987 -5.06669,2.68912 -10.40163,2.92105 -16,2 -4.81048,-2.55477 -7.37805,-5.82485 -9,-11 -3.50885,-30.47808 14.26459,-63.81494 32.45703,-86.86328 3.65761,-4.5564 7.53134,-8.88995 11.54297,-13.13672 0.69481,-0.74766 1.38961,-1.49531 2.10547,-2.26562 14.93369,-15.55933 34.00641,-27.23577 54.58203,-33.54688 0.70109,-0.21946 1.40218,-0.43892 2.12451,-0.66504 5.51517,-1.60691 11.36222,-3.07888 16.64893,-0.16699 z"
         fill="#fcfdfe"
         id="path7" />
      <path
         d="m 412.42635,282.50147 c 1.60849,-0.0149 1.60849,-0.0149 3.24947,-0.03 1.16635,0.005 2.3327,0.009 3.53439,0.0136 1.8545,-0.0103 1.8545,-0.0103 3.74647,-0.0208 3.38462,-0.0152 6.76869,-0.0168 10.1533,-0.0111 2.8303,0.003 5.66056,-0.003 8.49085,-0.009 6.68136,-0.014 13.36259,-0.0125 20.04395,-10e-4 6.87959,0.0115 13.75879,-0.003 20.63833,-0.0294 5.91698,-0.0222 11.83383,-0.0288 17.75085,-0.0229 3.52926,0.003 7.05826,10e-4 10.58748,-0.0163 3.9399,-0.0184 7.87933,-0.004 11.81924,0.0129 1.16028,-0.01 2.32055,-0.0193 3.51599,-0.0293 6.81988,0.0621 11.25675,0.87664 17.06287,4.53101 3.42933,3.64367 3.61878,7.6599 3.49609,12.48828 -0.8282,4.19315 -3.29846,6.80285 -6.49609,9.51172 -2.55027,1.27513 -4.35508,1.13739 -7.21137,1.1539 -1.65712,0.0129 -1.65712,0.0129 -3.34772,0.0261 -1.21768,0.004 -2.43536,0.008 -3.68994,0.0129 -1.91719,0.0123 -1.91719,0.0123 -3.87311,0.0248 -4.24572,0.0262 -8.49146,0.0415 -12.73724,0.0558 -1.46159,0.005 -2.92318,0.0107 -4.38477,0.0161 -6.0804,0.0216 -12.1608,0.0404 -18.24123,0.0516 -8.71328,0.0162 -17.42611,0.0494 -26.13922,0.1064 -6.12662,0.0387 -12.25312,0.0582 -18.37986,0.0635 -3.65902,0.004 -7.31755,0.0157 -10.97643,0.0481 -4.08444,0.0357 -8.16792,0.0317 -12.25251,0.0243 -1.20959,0.0164 -2.41917,0.0328 -3.66541,0.0497 -9.13815,-0.0681 -9.13815,-0.0681 -12.81463,-3.04223 -3.92484,-4.44735 -4.74711,-7.49856 -4.60297,-13.34098 0.49874,-3.54657 1.97966,-5.59748 4.3164,-8.25 3.58379,-2.5478 6.02766,-3.37621 10.40682,-3.38767 z"
         fill="#6e5df9"
         id="path13" />
      <path
         d="m 677.30079,423.93602 c 2.07894,1.73245 3.50929,3.5342 4.71875,5.95313 0.65219,7.64457 0.9141,13.85737 -4,20 -2.94103,1.81467 -5.47276,2.28936 -8.875,2.6875 -13.904,2.41324 -25.45818,10.79224 -33.8125,21.9375 -7.0312,10.80322 -11.02533,21.54003 -13.53955,34.14184 -1.36436,6.58566 -3.42796,10.44848 -7.77295,15.60816 -4.84827,2.62614 -9.62698,2.5832 -15,1.625 -4.08521,-2.21254 -6.528,-4.58401 -8,-9 -1.90101,-22.37345 7.28819,-45.78037 21.34766,-62.90625 13.22001,-15.58612 42.33711,-40.4165 64.93359,-30.04688 z"
         fill="#fcfdfe"
         id="path14" />
      <path
         d="m 416.68141,220.46923 c 1.07374,-0.008 2.14748,-0.0169 3.25375,-0.0257 3.54778,-0.0234 7.09513,-0.0244 10.64298,-0.0232 2.46713,-0.007 4.93426,-0.0148 7.40138,-0.0231 5.1707,-0.0135 10.34124,-0.015 15.51195,-0.009 6.6258,0.006 13.25088,-0.0247 19.87654,-0.0651 5.09496,-0.0259 10.18974,-0.0288 15.28476,-0.0251 2.44284,-0.002 4.8857,-0.0114 7.32847,-0.0291 3.41618,-0.0221 6.83087,-0.0125 10.24705,0.005 1.51275,-0.0199 1.51275,-0.0199 3.05607,-0.0402 4.5342,0.0543 7.72108,0.14605 11.3237,3.07669 3.30414,3.5333 4.27678,5.12397 4.72398,9.95373 -0.45462,5.27363 -1.92651,8.34296 -5.8125,11.9375 -3.37503,2.27815 -5.90582,2.81284 -9.88252,2.83467 -0.89576,0.007 -1.79153,0.0143 -2.71444,0.0217 -1.47048,0.004 -1.47048,0.004 -2.97066,0.008 -1.55165,0.01 -1.55165,0.01 -3.13465,0.0199 -3.42867,0.0197 -6.85729,0.0314 -10.28601,0.0414 -1.17024,0.004 -2.34048,0.008 -3.54619,0.0123 -6.19253,0.0209 -12.38503,0.0352 -18.57759,0.0445 -6.39928,0.0111 -12.79822,0.0455 -19.19738,0.0852 -4.91822,0.0261 -9.83635,0.0345 -14.75463,0.0381 -2.35912,0.005 -4.71823,0.0165 -7.07728,0.035 -3.30122,0.0243 -6.60155,0.0234 -9.90283,0.0165 -1.46137,0.0192 -1.46137,0.0192 -2.95226,0.0388 -5.82898,-0.0448 -9.0306,-0.69094 -13.50355,-4.50879 -2.89627,-3.29574 -3.89661,-5.90399 -4.3125,-10.3125 0.37459,-4.42017 1.47636,-6.31479 4.3125,-9.6875 4.74549,-3.94771 9.79168,-3.43689 15.66186,-3.41987 z"
         fill="#6c5bf9"
         id="path16" />
      <path
         d="m 414.16139,345.4851 c 0.69989,-0.007 1.39978,-0.0137 2.12088,-0.0208 2.30456,-0.0182 4.60844,-0.0144 6.91306,-0.009 1.61036,-0.005 3.22073,-0.01 4.8311,-0.0159 3.37335,-0.009 6.74647,-0.007 10.11982,0.003 4.3074,0.0115 8.61397,-0.009 12.92125,-0.0379 3.3262,-0.0184 6.6522,-0.0181 9.97843,-0.0124 1.58711,1.5e-4 3.17424,-0.006 4.7613,-0.0183 15.43677,-0.10398 15.43677,-0.10398 22.21231,4.51461 3.26292,3.56881 3.52253,7.11484 3.35157,11.78516 -0.70683,4.453 -3.0129,7.21067 -6.53627,9.85365 -3.56879,1.72551 -6.21218,1.74883 -10.17247,1.76525 -0.72261,0.007 -1.44522,0.0137 -2.18973,0.0208 -2.3791,0.0182 -4.75754,0.0144 -7.13669,0.009 -1.66,0.005 -3.32,0.01 -4.98,0.0159 -3.4759,0.009 -6.95157,0.006 -10.42747,-0.003 -4.44658,-0.0115 -8.89237,0.009 -13.33885,0.0379 -3.42734,0.0184 -6.85449,0.0181 -10.28186,0.0124 -1.63901,-1.6e-4 -3.27802,0.006 -4.91698,0.0183 -2.29539,0.0149 -4.58932,0.004 -6.88467,-0.0129 -1.30397,-1.7e-4 -2.60793,-3.4e-4 -3.9514,-5.1e-4 -5.01976,-0.71169 -8.14148,-2.87522 -11.41018,-6.6887 -1.60548,-4.0137 -1.80167,-7.54946 -1.125,-11.8125 3.67692,-7.35382 8.13591,-9.36976 16.14185,-9.40405 z"
         fill="#6e5df8"
         id="path17" />
      <path
         d="m 687.01954,253.88915 c 2,2 2,2 2.24051,4.89798 -0.004,1.2391 -0.009,2.4782 -0.0135,3.75485 2.9e-4,0.68304 5.9e-4,1.36609 8.9e-4,2.06983 -10e-4,2.26184 -0.017,4.52336 -0.0326,6.78515 -0.004,1.56656 -0.007,3.13312 -0.009,4.69968 -0.008,4.12646 -0.0273,8.25278 -0.0494,12.37918 -0.0204,4.20937 -0.0296,8.41877 -0.0397,12.62817 -0.0215,8.26179 -0.0556,16.52346 -0.0977,24.78516 -2.02045,-0.60184 -4.02111,-1.27306 -6,-2 -0.33,-0.66 -0.66,-1.32 -1,-2 1.32,0.33 2.64,0.66 4,1 0.33,-22.77 0.66,-45.54 1,-69 z"
         fill="#7c65fa"
         id="path27" />
      <path
         d="m 402.01954,222.88915 c 0.66,0.33 1.32,0.66 2,1 -0.66,0.61875 -1.32,1.2375 -2,1.875 -2.79943,4.37411 -2.58127,8.05964 -2,13.125 0.8506,2.9798 0.8506,2.9798 2,5 -3.59385,-3.36199 -4.84153,-5.32018 -5.3125,-10.3125 0.38768,-4.57468 2.0653,-7.4403 5.3125,-10.6875 z"
         fill="#5c49fa"
         id="path32" />
      <path
         d="m 516.01954,448.88915 c 1,3 1,3 1,5 -0.66,0 -1.32,0 -2,0 -0.12375,0.88687 -0.2475,1.77375 -0.375,2.6875 -0.56913,3.01637 -1.39114,5.51576 -2.625,8.3125 -1.41131,-3.76052 -0.54491,-6.02022 0.875,-9.6875 0.36867,-0.97324 0.73734,-1.94648 1.11719,-2.94922 1.00781,-2.36328 1.00781,-2.36328 2.00781,-3.36328 z"
         fill="#614df8"
         id="path33" />
      <path
         d="m 559.01954,380.88915 c 0.66,0 1.32,0 2,0 -0.33,0.99 -0.66,1.98 -1,3 -0.66,0 -1.32,0 -2,0 -0.66,1.32 -1.32,2.64 -2,4 -0.99,0 -1.98,0 -3,0 0.95117,-1.17251 1.91117,-2.33787 2.875,-3.5 0.53367,-0.64969 1.06734,-1.29937 1.61719,-1.96875 0.74636,-0.75797 0.74636,-0.75797 1.50781,-1.53125 z"
         fill="#6856f9"
         id="path36" />
    </g>
  </g>
</svg>
