<?xml version="1.0" encoding="UTF-8" standalone="no"?>
<svg
   version="1.1"
   width="1024"
   height="1024"
   id="svg36"
   sodipodi:docname="logo.svg"
   inkscape:version="1.4.2 (ebf0e940d0, 2025-05-08)"
   inkscape:export-filename="logo.svg"
   inkscape:export-xdpi="96"
   inkscape:export-ydpi="96"
   xmlns:inkscape="http://www.inkscape.org/namespaces/inkscape"
   xmlns:sodipodi="http://sodipodi.sourceforge.net/DTD/sodipodi-0.dtd"
   xmlns="http://www.w3.org/2000/svg"
   xmlns:svg="http://www.w3.org/2000/svg">
  <defs
     id="defs36" />
  <sodipodi:namedview
     id="namedview36"
     pagecolor="#ffffff"
     bordercolor="#cccccc"
     borderopacity="1"
     inkscape:showpageshadow="0"
     inkscape:pageopacity="1"
     inkscape:pagecheckerboard="0"
     inkscape:deskcolor="#d1d1d1"
     inkscape:zoom="0.66603905"
     inkscape:cx="500.72139"
     inkscape:cy="460.18323"
     inkscape:window-width="1896"
     inkscape:window-height="1037"
     inkscape:window-x="0"
     inkscape:window-y="0"
     inkscape:window-maximized="0"
     inkscape:current-layer="svg36" />
  <path
     d="M0 0 C69.34526854 0 69.34526854 0 88 14 C88.82628906 14.61617187 89.65257812 15.23234375 90.50390625 15.8671875 C101.46133464 25.22987279 107.47189359 39.92498973 109 54 C110.34119024 72.98270126 107.41722061 90.58991437 94.6875 105.4375 C82.69814679 117.81229773 67.79953059 123.60006706 51 126 C34.17 126 17.34 126 0 126 C0 84.42 0 42.84 0 0 Z "
     fill="#192C53"
     transform="translate(211,691)"
     id="path4" />
  <path
     d="M0 0 C70.89162562 0 70.89162562 0 82 11 C82.54914063 11.52335938 83.09828125 12.04671875 83.6640625 12.5859375 C91.0458525 20.33136247 93.36093888 30.54891254 93.20703125 40.97265625 C92.46588705 51.81014221 88.72766744 61.4677108 80.82421875 69.1015625 C68.01751666 79.49733104 54.44429421 81.49107585 38.25 81.1875 C33.5475 81.125625 28.845 81.06375 24 81 C24 95.85 24 110.7 24 126 C16.08 126 8.16 126 0 126 C0 84.42 0 42.84 0 0 Z "
     fill="#1B2F55"
     transform="translate(104,691)"
     id="path5" />
  <path
     d="M0 0 C8.50857459 7.10549648 15.05294357 17.03275302 17.26953125 28.03125 C17.26953125 29.68125 17.26953125 31.33125 17.26953125 33.03125 C9.34953125 33.03125 1.42953125 33.03125 -6.73046875 33.03125 C-7.55546875 31.195625 -8.38046875 29.36 -9.23046875 27.46875 C-12.96688665 20.04841656 -17.03485064 15.27595399 -24.8984375 12.375 C-29.71440357 10.86183383 -34.20562466 10.5290874 -39.23046875 10.59375 C-40.48210815 10.60619751 -40.48210815 10.60619751 -41.7590332 10.61889648 C-47.8135817 10.78564432 -52.69807039 11.43515984 -57.73046875 15.03125 C-58.78427734 15.77761719 -58.78427734 15.77761719 -59.859375 16.5390625 C-68.52578477 23.40196526 -72.70472759 33.3392365 -74.73046875 44.03125 C-76.25467793 59.34072785 -74.5701316 74.58954298 -64.73046875 87.03125 C-57.17811142 94.5693576 -49.82035167 97.14174289 -39.29296875 97.40625 C-30.12721568 97.19522666 -21.46950826 95.7015238 -14.73046875 89.03125 C-11.24149594 84.54012542 -9.5512922 80.49372036 -7.73046875 75.03125 C0.51953125 75.03125 8.76953125 75.03125 17.26953125 75.03125 C15.30910547 88.75423044 9.23319662 99.54826485 -1.44921875 108.40234375 C-16.13211864 118.88653768 -33.2528706 120.73654588 -50.72265625 118.59765625 C-66.11936217 116.02086867 -79.06027556 108.88857493 -88.48046875 96.28125 C-92.07366113 90.83323841 -94.60238181 85.18945032 -96.73046875 79.03125 C-97.21193359 77.65839844 -97.21193359 77.65839844 -97.703125 76.2578125 C-99.87723509 68.71415609 -100.03824818 61.27955066 -100.10546875 53.46875 C-100.11940674 52.42823486 -100.13334473 51.38771973 -100.14770508 50.31567383 C-100.08412087 39.82758177 -97.90872627 30.21313898 -93.04296875 20.90625 C-92.516427 19.88905884 -92.516427 19.88905884 -91.97924805 18.85131836 C-84.92508023 5.61155177 -74.95466576 -3.39051636 -61.04296875 -9.03125 C-41.16019397 -15.01679366 -16.91785575 -12.19828226 0 0 Z "
     fill="#1A2D53"
     transform="translate(522.73046875,699.96875)"
     id="path6" />
  <path
     d="M0 0 C6.67495803 4.92474299 10.17134385 10.07960017 12.0625 18.1875 C12.49135253 22.42512092 12.52692451 26.63753504 12.5390625 30.89453125 C12.55464203 32.09631516 12.57022156 33.29809906 12.58627319 34.53630066 C12.63353856 38.35752716 12.66144319 42.17857528 12.6875 46 C12.72422153 49.81058318 12.76509356 53.62107068 12.81015015 57.43156433 C12.83695685 59.79455447 12.85848305 62.1576129 12.87368774 64.52070618 C12.94206838 71.79183575 13.38217193 78.94715797 14.0625 86.1875 C7.1325 86.1875 0.2025 86.1875 -6.9375 86.1875 C-7.9275 81.2375 -7.9275 81.2375 -8.9375 76.1875 C-10.113125 77.280625 -11.28875 78.37375 -12.5 79.5 C-21.93081885 87.74780094 -32.82676399 87.87109105 -44.80419922 87.37109375 C-51.92263395 86.75847497 -58.1054277 83.35669362 -62.9375 78.1875 C-67.33814642 70.94078333 -69.9704634 63.78055789 -68.9375 55.1875 C-67.05062885 47.51983251 -63.5601249 42.4841857 -56.9375 38.1875 C-42.69488214 30.5386867 -24.6772701 30.92805324 -8.9375 31.1875 C-9.73271001 21.68905812 -9.73271001 21.68905812 -14.9375 14.1875 C-21.55935043 11.54253834 -29.4019713 10.64268066 -36.265625 12.98046875 C-39.33889309 14.66560104 -40.98692912 16.26164368 -42.9375 19.1875 C-43.2675 20.8375 -43.5975 22.4875 -43.9375 24.1875 C-50.8675 24.1875 -57.7975 24.1875 -64.9375 24.1875 C-63.75566558 13.55099024 -61.48016547 7.47025867 -53.19140625 0.69140625 C-38.65855165 -9.00555913 -14.69364375 -9.14751351 0 0 Z "
     fill="#1A2C53"
     transform="translate(617.9375,730.8125)"
     id="path8" />
  <path
     d="M0 0 C0.83192871 0.00563965 1.66385742 0.0112793 2.52099609 0.01708984 C14.63508111 0.25434456 24.23781806 2.97632298 33.0625 11.5625 C38.18101651 19.90378616 39.34048605 27.43672861 39.32421875 37.1171875 C39.33838333 38.31755646 39.35254791 39.51792542 39.36714172 40.75466919 C39.40879315 44.56570491 39.42422129 48.37626964 39.4375 52.1875 C39.46673822 55.99136787 39.50150056 59.7951224 39.53999329 63.59890747 C39.56213931 65.95633807 39.57816232 68.31383754 39.58683777 70.6713562 C39.6338131 77.93676267 40.06745995 85.07818887 40.75 92.3125 C33.82 92.3125 26.89 92.3125 19.75 92.3125 C18.76 87.3625 18.76 87.3625 17.75 82.3125 C16.574375 83.405625 15.39875 84.49875 14.1875 85.625 C5.02480411 93.63831178 -5.521114 94.00821892 -17.22363281 93.48730469 C-25.30966609 92.78976254 -32.02616446 88.3427802 -37.25 82.3125 C-42.36393901 75.19054539 -42.15503351 66.74703913 -41.25 58.3125 C-39.61705688 52.0512743 -35.60896291 47.77521449 -30.25 44.3125 C-15.80389773 36.58078329 1.85541735 37.76955054 17.75 37.3125 C17.46227566 35.37642151 17.16484525 33.44178364 16.86328125 31.5078125 C16.69868408 30.43031738 16.53408691 29.35282227 16.36450195 28.24267578 C15.60872532 24.63884936 14.55047351 22.71290587 11.75 20.3125 C5.33485357 17.13331239 -2.74679955 17.13645757 -9.61328125 18.9296875 C-15.06704193 21.56898068 -14.94500491 24.16584641 -17.25 30.3125 C-24.18 30.3125 -31.11 30.3125 -38.25 30.3125 C-37.07858665 19.76977989 -35.41893501 14.37437494 -27.390625 7.84765625 C-19.02237092 1.84633535 -10.16009067 -0.07235059 0 0 Z "
     fill="#1A2D53"
     transform="translate(879.25,724.6875)"
     id="path9" />
  <path
     d="M0 0 C26.73 0 53.46 0 81 0 C81 6.93 81 13.86 81 21 C62.19 21 43.38 21 24 21 C24 31.89 24 42.78 24 54 C40.5 54 57 54 74 54 C74 60.6 74 67.2 74 74 C57.5 74 41 74 24 74 C24 91.16 24 108.32 24 126 C16.08 126 8.16 126 0 126 C0 84.42 0 42.84 0 0 Z "
     fill="#1B2F56"
     transform="translate(335,691)"
     id="path10" />
  <path
     d="M0 0 C38.59809226 0 38.59809226 0 50.8125 11.3125 C60.34464324 21.50659763 60.56395287 34.34936071 60.30078125 47.55859375 C59.86096996 58.08329604 57.19547013 66.19084297 49.62109375 73.83984375 C35.05220146 85.84669537 18.53304625 84 0 84 C0 56.28 0 28.56 0 0 Z "
     fill="#FCFDFE"
     transform="translate(235,712)"
     id="path11" />
  <path
     d="M0 0 C4.77934574 3.67515207 8.71652334 8.85560121 10.265625 14.7421875 C10.265625 16.7221875 10.265625 18.7021875 10.265625 20.7421875 C3.665625 20.7421875 -2.934375 20.7421875 -9.734375 20.7421875 C-10.724375 18.7621875 -11.714375 16.7821875 -12.734375 14.7421875 C-18.39782929 9.50349229 -23.10214739 9.45704516 -30.5546875 9.5234375 C-34.30070629 9.78114887 -36.72642873 10.46590384 -39.734375 12.7421875 C-41.83305045 15.29709674 -41.74261792 16.89605542 -41.921875 20.2421875 C-41.13729244 23.71819275 -41.13729244 23.71819275 -39.05395508 24.87109375 C-32.89882402 27.5130537 -26.80159601 28.99087732 -20.234375 30.2421875 C-11.23686074 31.95656275 -2.36724612 33.81897422 4.640625 40.1171875 C5.26710938 40.66117188 5.89359375 41.20515625 6.5390625 41.765625 C11.75321659 47.73476973 11.78127155 53.49402927 11.6171875 61.1015625 C10.91330051 68.39070329 7.84793491 73.04797235 2.265625 77.7421875 C-6.55070164 84.34950165 -14.95917531 85.99408064 -25.796875 86.0546875 C-26.63573242 86.06024658 -27.47458984 86.06580566 -28.33886719 86.0715332 C-39.6223066 85.9422576 -49.66831215 83.03925381 -58.31640625 75.45703125 C-62.839152 69.98737454 -65.734375 63.79585727 -65.734375 56.7421875 C-58.804375 56.7421875 -51.874375 56.7421875 -44.734375 56.7421875 C-43.414375 59.3821875 -42.094375 62.0221875 -40.734375 64.7421875 C-34.11021342 69.64897386 -26.77882826 69.77807417 -18.734375 68.7421875 C-15.48773828 67.36447759 -13.22543073 66.23324323 -10.734375 63.7421875 C-10.30264311 61.64173979 -10.30264311 61.64173979 -10.296875 59.3046875 C-10.25691406 58.52222656 -10.21695313 57.73976563 -10.17578125 56.93359375 C-10.5375531 54.53224371 -10.5375531 54.53224371 -12.89599609 53.19238281 C-15.8837017 51.66589294 -18.41863939 50.97895949 -21.70703125 50.34765625 C-23.42889648 49.99670898 -23.42889648 49.99670898 -25.18554688 49.63867188 C-27.56456258 49.17161795 -29.94475827 48.71052882 -32.32617188 48.25585938 C-42.59696009 46.14448286 -52.91182999 43.06340347 -59.6484375 34.55078125 C-63.74512367 27.72788306 -63.61901785 20.43542086 -62.734375 12.7421875 C-59.77015727 4.39442726 -53.9619841 -0.65620299 -46.22265625 -4.5078125 C-31.15443565 -10.56031952 -13.55943583 -8.5705868 0 0 Z "
     fill="#192C52"
     transform="translate(710.734375,732.2578125)"
     id="path12" />
  <path
     d="M0 0 C6.93 0 13.86 0 21 0 C21 7.92 21 15.84 21 24 C28.59 24 36.18 24 44 24 C44 29.94 44 35.88 44 42 C36.41 42 28.82 42 21 42 C21.09690625 48.76303612 21.19962076 55.52545526 21.31738281 62.28808594 C21.35567417 64.5888122 21.39052674 66.88959835 21.421875 69.19042969 C21.4675217 72.49696262 21.52551747 75.80308312 21.5859375 79.109375 C21.59748871 80.13867126 21.60903992 81.16796753 21.62094116 82.22845459 C21.64081085 83.18914856 21.66068054 84.14984253 21.68115234 85.13964844 C21.69447601 85.98348083 21.70779968 86.82731323 21.7215271 87.69671631 C22.02695422 90.22294171 22.65000901 91.85148212 24 94 C26.296537 95.1482685 27.58313167 95.11561175 30.1328125 95.09765625 C30.85871582 95.09515869 31.58461914 95.09266113 32.33251953 95.09008789 C33.25403809 95.08098389 34.17555664 95.07187988 35.125 95.0625 C39.518125 95.0315625 39.518125 95.0315625 44 95 C44 101.6 44 108.2 44 115 C19.24305556 118.09461806 19.24305556 118.09461806 9 112 C3.96510779 107.79513531 1.17845361 103.48112337 0 97 C-0.26740323 92.75984948 -0.2328821 88.53226164 -0.1953125 84.28515625 C-0.1924826 83.07427841 -0.18965271 81.86340057 -0.18673706 80.61582947 C-0.1755803 76.76461732 -0.15048355 72.91364136 -0.125 69.0625 C-0.1149644 66.44466483 -0.10583956 63.82682599 -0.09765625 61.20898438 C-0.07565563 54.80589917 -0.04115642 48.40298958 0 42 C-4.95 42 -9.9 42 -15 42 C-15 36.06 -15 30.12 -15 24 C-10.05 24 -5.1 24 0 24 C0 16.08 0 8.16 0 0 Z "
     fill="#192B52"
     transform="translate(745,702)"
     id="path15" />
  <path
     d="M0 0 C7.59 0 15.18 0 23 0 C23 30.03 23 60.06 23 91 C15.41 91 7.82 91 0 91 C0 60.97 0 30.94 0 0 Z "
     fill="#192C53"
     transform="translate(801,726)"
     id="path18" />
  <path
     d="M0 0 C7.1775 -0.0928125 7.1775 -0.0928125 14.5 -0.1875 C16.74006836 -0.22846802 16.74006836 -0.22846802 19.02539062 -0.27026367 C34.34541479 -0.36606533 34.34541479 -0.36606533 40.375 5.1875 C43.95361608 11.38125859 44.93002916 18.18075801 43.5703125 25.2265625 C41.97362363 31.12051278 39.26476321 34.82982 34 38 C30.36303296 39.21796351 26.85753493 39.11380311 23.046875 39.09765625 C21.83870117 39.09515869 20.63052734 39.09266113 19.38574219 39.09008789 C17.85594727 39.08098389 16.32615234 39.07187988 14.75 39.0625 C9.8825 39.041875 5.015 39.02125 0 39 C0 26.13 0 13.26 0 0 Z "
     fill="#FCFDFE"
     transform="translate(128,712)"
     id="path19" />
  <path
     d="M0 0 C-0.48183254 14.4549763 -0.48183254 14.4549763 -5 20 C-12.12484587 25.74584344 -18.99021584 26.84976001 -28 26 C-31.5123304 24.83525813 -34.05708374 23.14789806 -36.4375 20.25 C-37.64820684 15.40717264 -37.81830657 11.60103459 -35.5625 7.1875 C-26.65653593 -0.41515226 -11.17729389 -0.16198977 0 0 Z "
     fill="#F9FAFB"
     transform="translate(897,776)"
     id="path20" />
  <path
     d="M0 0 C-0.26727828 7.14969405 -0.76985097 13.9982501 -5 20 C-11.18444705 25.30821123 -17.27140346 26.35967604 -25.234375 26.28515625 C-29.9930042 25.79450663 -33.34873787 24.01023216 -36.4375 20.25 C-37.65457992 15.38168032 -37.8462969 11.58680669 -35.5 7.1875 C-29.79219272 2.19316863 -22.65832336 1.44256527 -15.375 0.8125 C-14.55515625 0.73064453 -13.7353125 0.64878906 -12.890625 0.56445312 C-8.57824435 0.1519344 -4.33706985 -0.09123286 0 0 Z "
     fill="#FAFCFC"
     transform="translate(609,776)"
     id="path21" />
  <path
     d="M0 0 C26.73 0 53.46 0 81 0 C81 6.93 81 13.86 81 21 C62.19 21 43.38 21 24 21 C24 31.89 24 42.78 24 54 C40.5 54 57 54 74 54 C74 60.6 74 67.2 74 74 C57.5 74 41 74 24 74 C24 91.16 24 108.32 24 126 C16.08 126 8.16 126 0 126 C0 84.42 0 42.84 0 0 Z M1 2 C1 42.26 1 82.52 1 124 C8.26 124 15.52 124 23 124 C23.33 107.5 23.66 91 24 74 C39.84 73.67 55.68 73.34 72 73 C72 67.39 72 61.78 72 56 C56.16 55.67 40.32 55.34 24 55 C23.67 43.45 23.34 31.9 23 20 C41.48 20 59.96 20 79 20 C79 14.06 79 8.12 79 2 C53.26 2 27.52 2 1 2 Z "
     fill="#040F36"
     transform="translate(335,691)"
     id="path22" />
  <path
     d="M0 0 C3.28036677 2.40026837 4.33836148 3.98655999 5.5625 7.875 C5.75962477 12.53207261 5.17062643 15.90199771 2.6875 19.875 C-1.42019009 23.74106126 -6.19154339 23.20543079 -11.546875 23.16015625 C-15.30375141 22.78954547 -17.02769732 21.76676322 -19.4375 18.875 C-21.72076936 15.83064086 -21.85609308 12.6689921 -21.7578125 8.90625 C-21.22393864 5.52070842 -19.63023902 3.43319552 -17.4375 0.875 C-12.09144902 -2.45775093 -5.79529181 -1.89664096 0 0 Z "
     fill="#192B51"
     transform="translate(820.4375,690.125)"
     id="path23" />
  <path
     d="M0 0 C16.5 0 33 0 50 0 C50 0.66 50 1.32 50 2 C33.83 2 17.66 2 1 2 C1 42.26 1 82.52 1 124 C7.93 124 14.86 124 22 124 C22 109.81 22 95.62 22 81 C22.33 81 22.66 81 23 81 C23.33 95.85 23.66 110.7 24 126 C16.08 126 8.16 126 0 126 C0 84.42 0 42.84 0 0 Z "
     fill="#030C2F"
     transform="translate(104,691)"
     id="path24" />
  <path
     d="M0 0 C7.59 0 15.18 0 23 0 C23 30.03 23 60.06 23 91 C22.67 91 22.34 91 22 91 C22 61.63 22 32.26 22 2 C15.4 2.33 8.8 2.66 2 3 C1.67 32.04 1.34 61.08 1 91 C0.67 91 0.34 91 0 91 C0 60.97 0 30.94 0 0 Z "
     fill="#435171"
     transform="translate(801,726)"
     id="path25" />
  <path
     d="M0 0 C26.07 0 52.14 0 79 0 C79 6.6 79 13.2 79 20 C78.34 20 77.68 20 77 20 C77 14.06 77 8.12 77 2 C51.59 2 26.18 2 0 2 C0 1.34 0 0.68 0 0 Z "
     fill="#061742"
     transform="translate(337,691)"
     id="path26" />
  <path
     d="M0 0 C0.33 0 0.66 0 1 0 C1.01030746 0.62481262 1.02061493 1.24962524 1.03123474 1.89337158 C1.14015478 8.44820844 1.25467297 15.00293119 1.37231445 21.55761719 C1.41539177 23.99769686 1.45708354 26.43780143 1.49731445 28.87792969 C1.55568249 32.40307084 1.6191784 35.92808976 1.68359375 39.453125 C1.70030624 40.5286261 1.71701874 41.6041272 1.73423767 42.71221924 C1.87103974 49.84664906 2.34573069 56.89384363 3 64 C-3.93 64 -10.86 64 -18 64 C-18 60.04 -18 56.08 -18 52 C-17.67 52 -17.34 52 -17 52 C-17 55.3 -17 58.6 -17 62 C-11.06 62 -5.12 62 1 62 C0.67 60.02 0.34 58.04 0 56 C-0.08189682 54.06076717 -0.11791669 52.11917906 -0.11352539 50.17822266 C-0.11344986 49.05751373 -0.11337433 47.93680481 -0.11329651 46.78213501 C-0.10813522 45.58817108 -0.10297394 44.39420715 -0.09765625 43.1640625 C-0.0962413 41.92957367 -0.09482635 40.69508484 -0.09336853 39.42318726 C-0.08778272 35.49043325 -0.07523275 31.55773672 -0.0625 27.625 C-0.05691912 24.95442792 -0.05292058 22.28385637 -0.04882812 19.61328125 C-0.03781792 13.07550131 -0.02109385 6.53775476 0 0 Z "
     fill="#050D31"
     transform="translate(917,753)"
     id="path28" />
  <path
     d="M0 0 C0.33 0 0.66 0 1 0 C1.33 14.85 1.66 29.7 2 45 C-5.59 45 -13.18 45 -21 45 C-21 44.34 -21 43.68 -21 43 C-14.07 43 -7.14 43 0 43 C0 28.81 0 14.62 0 0 Z "
     fill="#051641"
     transform="translate(126,772)"
     id="path29" />
  <path
     d="M0 0 C3.8671875 0.061875 3.8671875 0.061875 7.8125 0.125 C7.8125 6.725 7.8125 13.325 7.8125 20.125 C7.1525 20.125 6.4925 20.125 5.8125 20.125 C5.8125 14.185 5.8125 8.245 5.8125 2.125 C0.2025 2.125 -5.4075 2.125 -11.1875 2.125 C-7.39298348 -0.40467768 -4.37552503 -0.09860092 0 0 Z "
     fill="#0E1E48"
     transform="translate(408.1875,690.875)"
     id="path30" />
  <path
     d="M0 0 C0.33 0 0.66 0 1 0 C1 1.98 1 3.96 1 6 C6.94 6 12.88 6 19 6 C19 4.35 19 2.7 19 1 C19.33 1 19.66 1 20 1 C20.33 3.31 20.66 5.62 21 8 C14.07 8 7.14 8 0 8 C0 5.36 0 2.72 0 0 Z "
     fill="#06143D"
     transform="translate(611,809)"
     id="path31" />
  <path
     d="M0 0 C2.64 0.33 5.28 0.66 8 1 C7.67 1.66 7.34 2.32 7 3 C3.04 3 -0.92 3 -5 3 C-5 2.67 -5 2.34 -5 2 C-3.35 1.67 -1.7 1.34 0 1 C0 0.67 0 0.34 0 0 Z "
     fill="#25385E"
     transform="translate(597,762)"
     id="path34" />
  <path
     d="M0 0 C1.57499749 3.14999498 0.70833498 5.63540882 0 9 C-1.546875 10.72265625 -1.546875 10.72265625 -3 12 C-2.88541307 10.56163249 -2.75790884 9.12429034 -2.625 7.6875 C-2.55539062 6.88699219 -2.48578125 6.08648438 -2.4140625 5.26171875 C-2 3 -2 3 0 0 Z "
     fill="#162147"
     transform="translate(428,726)"
     id="path35" />
  <g
     id="g37"
     transform="translate(12.34274,-2.5549272)">
    <g
       id="g36">
      <path
         d="m 671.33204,345.70165 c 1.25425,1.03276 2.4847,2.09524 3.6875,3.1875 0.55816,0.50402 1.11633,1.00805 1.69141,1.52734 26.90525,27.52951 32.86933,75.45978 32.52343,111.78125 -0.52099,22.95911 -7.58144,46.46334 -23.21484,63.69141 -0.73863,0.83145 -1.47727,1.66289 -2.23828,2.51953 -18.47009,19.67926 -46.38296,28.96938 -72.84766,29.81641 -30.01975,0.37132 -67.76401,-3.31196 -91.72656,-23.83594 -10.22657,-10.29771 -14.55019,-21.37198 -14.75,-35.8125 0.20748,-24.7684 8.87176,-49.28904 20.58887,-70.89209 0.93864,-1.73089 1.85121,-3.47584 2.76269,-5.22119 9.83526,-18.14292 23.12132,-35.55195 39.21094,-48.57422 1.47146,-1.22783 1.47146,-1.22783 2.97266,-2.48047 17.66501,-14.50925 38.67995,-27.0146 61.02734,-32.51953 0.7541,-0.1882 1.5082,-0.37641 2.28516,-0.57031 13.92839,-2.2045 26.2851,-0.76532 38.02734,7.38281 z"
         fill="#7662f8"
         id="path2" />
      <path
         d="m 375.13284,134.74871 c 0.81252,-0.003 1.62503,-0.006 2.46217,-0.009 2.72038,-0.009 5.44071,-0.0102 8.16111,-0.0117 1.95168,-0.005 3.90337,-0.01 5.85505,-0.0151 5.302,-0.0131 10.60398,-0.0196 15.90598,-0.024 3.31531,-0.003 6.63061,-0.007 9.94592,-0.0115 10.38079,-0.0137 20.76157,-0.0233 31.14237,-0.0272 11.96766,-0.004 23.9352,-0.022 35.90282,-0.051 9.25967,-0.0216 18.5193,-0.0317 27.77898,-0.033 5.52577,-0.001 11.05144,-0.007 16.57718,-0.0248 5.20306,-0.0165 10.40593,-0.0186 15.60901,-0.01 1.90262,7.6e-4 3.80526,-0.004 5.70786,-0.0135 18.08166,-0.0887 31.52502,2.1059 45.00622,15.18357 1.68368,1.71895 3.35685,3.44824 5.01953,5.1875 1.67856,1.73153 3.35951,3.46074 5.04297,5.1875 0.72599,0.75668 1.45197,1.51336 2.19995,2.29297 2.08709,2.04643 4.20297,3.96048 6.4126,5.86914 3.99008,3.45979 7.73046,7.11107 11.43823,10.86914 0.65779,0.66157 1.31557,1.32314 1.99329,2.00476 2.77613,2.79227 5.54618,5.59055 8.31677,8.38831 2.04036,2.05859 4.08384,4.11406 6.12744,6.16943 0.6117,0.62 1.2234,1.24 1.85364,1.87879 3.73117,3.75191 7.59258,7.28582 11.59641,10.74475 4.13486,3.60199 7.99577,7.49134 11.8937,11.34521 0.85916,0.83016 1.71832,1.66031 2.60352,2.51563 8.79236,8.70503 14.75489,17.86178 18.33398,29.73437 0.17765,0.56781 0.35529,1.13563 0.53832,1.72064 0.62417,3.08158 0.58086,6.01486 0.57521,9.15924 1.4e-4,0.68334 2.9e-4,1.36667 4.4e-4,2.07071 -6.9e-4,2.25088 -0.008,4.50167 -0.0163,6.75254 -0.002,1.5637 -0.003,3.1274 -0.004,4.6911 -0.004,4.10994 -0.0136,8.21984 -0.0247,12.32977 -0.0102,4.19616 -0.0148,8.39233 -0.0198,12.5885 -0.0107,8.22918 -0.0278,16.45834 -0.0488,24.6875 -4.54644,-1.49547 -9.00061,-3.14559 -13.4375,-4.9375 -0.6297,-0.25201 -1.25941,-0.50402 -1.9082,-0.76367 -4.24754,-1.70687 -8.44354,-3.49422 -12.6543,-5.29883 0,-19.8 0,-39.6 0,-60 -4.64836,0.0348 -9.29672,0.0696 -14.08593,0.10547 -2.96226,0.0153 -5.92446,0.0298 -8.88672,0.041 -4.69168,0.0179 -9.38317,0.0389 -14.07471,0.0798 -3.78664,0.0328 -7.57308,0.0506 -11.35985,0.0583 -1.43755,0.005 -2.87509,0.0162 -4.31256,0.0326 -12.55349,0.1367 -23.08748,-1.5051 -33.28023,-9.31719 -7.02776,-7.28414 -11.13401,-16.06307 -11.11352,-26.14551 7e-5,-1.24098 1.5e-4,-2.48196 2.3e-4,-3.76055 0.005,-1.34902 0.0103,-2.69804 0.0156,-4.04706 0.002,-1.38434 0.003,-2.76868 0.004,-4.15302 0.004,-3.63647 0.0136,-7.2729 0.0247,-10.90936 0.0102,-3.71358 0.0148,-7.42716 0.0198,-11.14075 0.0107,-7.28127 0.0278,-14.5625 0.0488,-21.84375 -25.04326,0.0372 -50.08639,0.097 -75.12954,0.18391 -11.62796,0.0398 -23.25586,0.0722 -34.88388,0.0871 -10.13495,0.013 -20.26974,0.0399 -30.4046,0.0836 -5.36639,0.0226 -10.73261,0.0383 -16.09905,0.0373 -5.05207,-7.5e-4 -10.10373,0.0172 -15.15569,0.0493 -1.8531,0.008 -3.70624,0.0102 -5.55934,0.005 -2.53351,-0.007 -5.06572,0.0113 -7.59909,0.0352 -0.73056,-0.008 -1.46112,-0.0155 -2.21383,-0.0235 -5.47991,0.0914 -8.52357,1.55202 -12.95498,4.54249 -3.54206,3.89627 -4.12485,7.28236 -4.13422,12.43806 -0.004,1.13663 -0.009,2.27326 -0.0135,3.44433 1.9e-4,1.25425 3.7e-4,2.5085 5.6e-4,3.80076 -0.003,1.34158 -0.007,2.68315 -0.0111,4.02472 -0.01,3.69469 -0.0137,7.38937 -0.0164,11.08407 -0.004,3.98174 -0.0135,7.96347 -0.0222,11.9452 -0.0198,9.61993 -0.0298,19.23986 -0.0387,28.8598 -0.004,4.52917 -0.01,9.05835 -0.015,13.58752 -0.017,15.05427 -0.0315,30.10853 -0.0387,45.1628 -0.002,3.90728 -0.004,7.81456 -0.006,11.72183 -4.8e-4,0.97115 -9.7e-4,1.94229 -0.001,2.94287 -0.008,15.73397 -0.0336,31.46786 -0.0661,47.20179 -0.0331,16.15027 -0.0511,32.30051 -0.0543,48.45081 -0.002,9.06919 -0.0109,18.13827 -0.0365,27.20743 -0.0217,7.72333 -0.0298,15.44653 -0.02,23.16989 0.005,3.94027 0.003,7.88024 -0.0168,11.82047 -0.0176,3.6094 -0.0166,7.21831 -10e-4,10.82772 0.003,1.91963 -0.0127,3.83927 -0.0296,5.75883 0.0521,6.98334 0.67738,11.64988 4.52099,17.5511 5.55885,4.41663 10.39138,4.57841 17.32226,4.53003 1.01391,0.009 2.02781,0.0175 3.07244,0.0265 3.33736,0.0243 6.6741,0.021 10.01155,0.0177 2.32736,0.0125 4.65471,0.0268 6.98205,0.0429 6.11947,0.038 12.23877,0.0532 18.35834,0.0628 9.79431,0.0197 19.5885,0.0767 29.38268,0.12877 3.41609,0.0153 6.83212,0.0225 10.24824,0.0281 2.10006,0.007 4.20011,0.0141 6.30017,0.0213 0.94566,-5.3e-4 1.89133,-0.001 2.86565,-0.002 4.92579,0.0224 9.60009,0.30796 14.45661,1.14345 0.29133,0.81082 0.58266,1.62164 0.88282,2.45703 2.48384,6.7095 5.24179,12.98588 8.78515,19.20313 1.18664,2.08445 2.26923,4.19074 3.33203,6.33984 -16.75988,0.0936 -33.51967,0.16408 -50.27974,0.20725 -7.7829,0.0206 -15.56563,0.0486 -23.34843,0.0945 -6.78752,0.04 -13.57493,0.0657 -20.36257,0.0746 -3.5904,0.005 -7.18046,0.0173 -10.77075,0.0466 -4.01886,0.0325 -8.03714,0.033 -12.05613,0.0312 -1.17605,0.0144 -2.3521,0.0288 -3.56378,0.0436 -11.26173,-0.0558 -20.13309,-3.06156 -28.61859,-10.49768 -0.59426,-0.47824 -1.18852,-0.95648 -1.80078,-1.44922 -7.65337,-6.737 -12.55691,-17.60325 -14.19922,-27.55078 -0.2868,-4.52561 -0.2742,-9.04117 -0.2607,-13.57467 -0.003,-1.37747 -0.007,-2.75493 -0.0116,-4.13239 -0.0103,-3.77077 -0.008,-7.54145 -0.004,-11.31223 0.002,-4.07236 -0.007,-8.14469 -0.014,-12.21704 -0.0127,-7.97262 -0.0145,-15.94521 -0.0122,-23.91784 0.002,-6.48142 3e-5,-12.96283 -0.004,-19.44425 -5.9e-4,-0.923 -0.001,-1.846 -0.002,-2.79697 -0.001,-1.87517 -0.002,-3.75034 -0.004,-5.6255 -0.0109,-17.57958 -0.009,-35.15913 -0.003,-52.73871 0.005,-16.07501 -0.006,-32.14996 -0.0251,-48.22496 -0.0194,-16.51431 -0.0276,-33.02859 -0.0239,-49.54291 0.002,-9.26812 -5.7e-4,-18.5362 -0.0147,-27.80431 -0.0119,-7.89003 -0.0133,-15.77998 -0.001,-23.67002 0.006,-4.02353 0.007,-8.0469 -0.005,-12.07042 -0.0109,-3.68758 -0.008,-7.37488 0.006,-11.06244 0.004,-1.95667 -0.007,-3.91336 -0.0183,-5.87 0.0778,-12.72179 3.29111,-23.10712 11.83407,-32.74534 0.84562,-0.7425 1.69125,-1.485 2.5625,-2.25 0.50016,-0.49113 1.00031,-0.98226 1.51562,-1.48828 8.07895,-7.60668 17.78882,-9.66411 28.59758,-9.65171 z"
         fill="#6e5df9"
         id="path3" />
      <path
         d="m 653.48048,368.24462 c 4.97651,4.76323 7.29307,7.54507 7.85156,14.58203 -0.11221,3.96498 -1.12507,6.70324 -3.3125,10.0625 -3.55479,3.35391 -7.74718,4.3156 -12.3125,5.6875 -13.81489,4.40351 -25.50644,11.03429 -36.6875,20.3125 -0.52303,0.43264 -1.04607,0.86528 -1.58496,1.31104 -23.51713,19.73885 -40.68845,50.20232 -43.47754,80.93896 -0.0429,0.70294 -0.0857,1.40589 -0.12988,2.13013 -0.3658,4.73643 -1.34935,7.33542 -4.80762,10.61987 -5.06669,2.68912 -10.40163,2.92105 -16,2 -4.81048,-2.55477 -7.37805,-5.82485 -9,-11 -3.50885,-30.47808 14.26459,-63.81494 32.45703,-86.86328 3.65761,-4.5564 7.53134,-8.88995 11.54297,-13.13672 0.69481,-0.74766 1.38961,-1.49531 2.10547,-2.26562 14.93369,-15.55933 34.00641,-27.23577 54.58203,-33.54688 0.70109,-0.21946 1.40218,-0.43892 2.12451,-0.66504 5.51517,-1.60691 11.36222,-3.07888 16.64893,-0.16699 z"
         fill="#fcfdfe"
         id="path7" />
      <path
         d="m 412.42635,282.50147 c 1.60849,-0.0149 1.60849,-0.0149 3.24947,-0.03 1.16635,0.005 2.3327,0.009 3.53439,0.0136 1.8545,-0.0103 1.8545,-0.0103 3.74647,-0.0208 3.38462,-0.0152 6.76869,-0.0168 10.1533,-0.0111 2.8303,0.003 5.66056,-0.003 8.49085,-0.009 6.68136,-0.014 13.36259,-0.0125 20.04395,-10e-4 6.87959,0.0115 13.75879,-0.003 20.63833,-0.0294 5.91698,-0.0222 11.83383,-0.0288 17.75085,-0.0229 3.52926,0.003 7.05826,10e-4 10.58748,-0.0163 3.9399,-0.0184 7.87933,-0.004 11.81924,0.0129 1.16028,-0.01 2.32055,-0.0193 3.51599,-0.0293 6.81988,0.0621 11.25675,0.87664 17.06287,4.53101 3.42933,3.64367 3.61878,7.6599 3.49609,12.48828 -0.8282,4.19315 -3.29846,6.80285 -6.49609,9.51172 -2.55027,1.27513 -4.35508,1.13739 -7.21137,1.1539 -1.65712,0.0129 -1.65712,0.0129 -3.34772,0.0261 -1.21768,0.004 -2.43536,0.008 -3.68994,0.0129 -1.91719,0.0123 -1.91719,0.0123 -3.87311,0.0248 -4.24572,0.0262 -8.49146,0.0415 -12.73724,0.0558 -1.46159,0.005 -2.92318,0.0107 -4.38477,0.0161 -6.0804,0.0216 -12.1608,0.0404 -18.24123,0.0516 -8.71328,0.0162 -17.42611,0.0494 -26.13922,0.1064 -6.12662,0.0387 -12.25312,0.0582 -18.37986,0.0635 -3.65902,0.004 -7.31755,0.0157 -10.97643,0.0481 -4.08444,0.0357 -8.16792,0.0317 -12.25251,0.0243 -1.20959,0.0164 -2.41917,0.0328 -3.66541,0.0497 -9.13815,-0.0681 -9.13815,-0.0681 -12.81463,-3.04223 -3.92484,-4.44735 -4.74711,-7.49856 -4.60297,-13.34098 0.49874,-3.54657 1.97966,-5.59748 4.3164,-8.25 3.58379,-2.5478 6.02766,-3.37621 10.40682,-3.38767 z"
         fill="#6e5df9"
         id="path13" />
      <path
         d="m 677.30079,423.93602 c 2.07894,1.73245 3.50929,3.5342 4.71875,5.95313 0.65219,7.64457 0.9141,13.85737 -4,20 -2.94103,1.81467 -5.47276,2.28936 -8.875,2.6875 -13.904,2.41324 -25.45818,10.79224 -33.8125,21.9375 -7.0312,10.80322 -11.02533,21.54003 -13.53955,34.14184 -1.36436,6.58566 -3.42796,10.44848 -7.77295,15.60816 -4.84827,2.62614 -9.62698,2.5832 -15,1.625 -4.08521,-2.21254 -6.528,-4.58401 -8,-9 -1.90101,-22.37345 7.28819,-45.78037 21.34766,-62.90625 13.22001,-15.58612 42.33711,-40.4165 64.93359,-30.04688 z"
         fill="#fcfdfe"
         id="path14" />
      <path
         d="m 416.68141,220.46923 c 1.07374,-0.008 2.14748,-0.0169 3.25375,-0.0257 3.54778,-0.0234 7.09513,-0.0244 10.64298,-0.0232 2.46713,-0.007 4.93426,-0.0148 7.40138,-0.0231 5.1707,-0.0135 10.34124,-0.015 15.51195,-0.009 6.6258,0.006 13.25088,-0.0247 19.87654,-0.0651 5.09496,-0.0259 10.18974,-0.0288 15.28476,-0.0251 2.44284,-0.002 4.8857,-0.0114 7.32847,-0.0291 3.41618,-0.0221 6.83087,-0.0125 10.24705,0.005 1.51275,-0.0199 1.51275,-0.0199 3.05607,-0.0402 4.5342,0.0543 7.72108,0.14605 11.3237,3.07669 3.30414,3.5333 4.27678,5.12397 4.72398,9.95373 -0.45462,5.27363 -1.92651,8.34296 -5.8125,11.9375 -3.37503,2.27815 -5.90582,2.81284 -9.88252,2.83467 -0.89576,0.007 -1.79153,0.0143 -2.71444,0.0217 -1.47048,0.004 -1.47048,0.004 -2.97066,0.008 -1.55165,0.01 -1.55165,0.01 -3.13465,0.0199 -3.42867,0.0197 -6.85729,0.0314 -10.28601,0.0414 -1.17024,0.004 -2.34048,0.008 -3.54619,0.0123 -6.19253,0.0209 -12.38503,0.0352 -18.57759,0.0445 -6.39928,0.0111 -12.79822,0.0455 -19.19738,0.0852 -4.91822,0.0261 -9.83635,0.0345 -14.75463,0.0381 -2.35912,0.005 -4.71823,0.0165 -7.07728,0.035 -3.30122,0.0243 -6.60155,0.0234 -9.90283,0.0165 -1.46137,0.0192 -1.46137,0.0192 -2.95226,0.0388 -5.82898,-0.0448 -9.0306,-0.69094 -13.50355,-4.50879 -2.89627,-3.29574 -3.89661,-5.90399 -4.3125,-10.3125 0.37459,-4.42017 1.47636,-6.31479 4.3125,-9.6875 4.74549,-3.94771 9.79168,-3.43689 15.66186,-3.41987 z"
         fill="#6c5bf9"
         id="path16" />
      <path
         d="m 414.16139,345.4851 c 0.69989,-0.007 1.39978,-0.0137 2.12088,-0.0208 2.30456,-0.0182 4.60844,-0.0144 6.91306,-0.009 1.61036,-0.005 3.22073,-0.01 4.8311,-0.0159 3.37335,-0.009 6.74647,-0.007 10.11982,0.003 4.3074,0.0115 8.61397,-0.009 12.92125,-0.0379 3.3262,-0.0184 6.6522,-0.0181 9.97843,-0.0124 1.58711,1.5e-4 3.17424,-0.006 4.7613,-0.0183 15.43677,-0.10398 15.43677,-0.10398 22.21231,4.51461 3.26292,3.56881 3.52253,7.11484 3.35157,11.78516 -0.70683,4.453 -3.0129,7.21067 -6.53627,9.85365 -3.56879,1.72551 -6.21218,1.74883 -10.17247,1.76525 -0.72261,0.007 -1.44522,0.0137 -2.18973,0.0208 -2.3791,0.0182 -4.75754,0.0144 -7.13669,0.009 -1.66,0.005 -3.32,0.01 -4.98,0.0159 -3.4759,0.009 -6.95157,0.006 -10.42747,-0.003 -4.44658,-0.0115 -8.89237,0.009 -13.33885,0.0379 -3.42734,0.0184 -6.85449,0.0181 -10.28186,0.0124 -1.63901,-1.6e-4 -3.27802,0.006 -4.91698,0.0183 -2.29539,0.0149 -4.58932,0.004 -6.88467,-0.0129 -1.30397,-1.7e-4 -2.60793,-3.4e-4 -3.9514,-5.1e-4 -5.01976,-0.71169 -8.14148,-2.87522 -11.41018,-6.6887 -1.60548,-4.0137 -1.80167,-7.54946 -1.125,-11.8125 3.67692,-7.35382 8.13591,-9.36976 16.14185,-9.40405 z"
         fill="#6e5df8"
         id="path17" />
      <path
         d="m 687.01954,253.88915 c 2,2 2,2 2.24051,4.89798 -0.004,1.2391 -0.009,2.4782 -0.0135,3.75485 2.9e-4,0.68304 5.9e-4,1.36609 8.9e-4,2.06983 -10e-4,2.26184 -0.017,4.52336 -0.0326,6.78515 -0.004,1.56656 -0.007,3.13312 -0.009,4.69968 -0.008,4.12646 -0.0273,8.25278 -0.0494,12.37918 -0.0204,4.20937 -0.0296,8.41877 -0.0397,12.62817 -0.0215,8.26179 -0.0556,16.52346 -0.0977,24.78516 -2.02045,-0.60184 -4.02111,-1.27306 -6,-2 -0.33,-0.66 -0.66,-1.32 -1,-2 1.32,0.33 2.64,0.66 4,1 0.33,-22.77 0.66,-45.54 1,-69 z"
         fill="#7c65fa"
         id="path27" />
      <path
         d="m 402.01954,222.88915 c 0.66,0.33 1.32,0.66 2,1 -0.66,0.61875 -1.32,1.2375 -2,1.875 -2.79943,4.37411 -2.58127,8.05964 -2,13.125 0.8506,2.9798 0.8506,2.9798 2,5 -3.59385,-3.36199 -4.84153,-5.32018 -5.3125,-10.3125 0.38768,-4.57468 2.0653,-7.4403 5.3125,-10.6875 z"
         fill="#5c49fa"
         id="path32" />
      <path
         d="m 516.01954,448.88915 c 1,3 1,3 1,5 -0.66,0 -1.32,0 -2,0 -0.12375,0.88687 -0.2475,1.77375 -0.375,2.6875 -0.56913,3.01637 -1.39114,5.51576 -2.625,8.3125 -1.41131,-3.76052 -0.54491,-6.02022 0.875,-9.6875 0.36867,-0.97324 0.73734,-1.94648 1.11719,-2.94922 1.00781,-2.36328 1.00781,-2.36328 2.00781,-3.36328 z"
         fill="#614df8"
         id="path33" />
      <path
         d="m 559.01954,380.88915 c 0.66,0 1.32,0 2,0 -0.33,0.99 -0.66,1.98 -1,3 -0.66,0 -1.32,0 -2,0 -0.66,1.32 -1.32,2.64 -2,4 -0.99,0 -1.98,0 -3,0 0.95117,-1.17251 1.91117,-2.33787 2.875,-3.5 0.53367,-0.64969 1.06734,-1.29937 1.61719,-1.96875 0.74636,-0.75797 0.74636,-0.75797 1.50781,-1.53125 z"
         fill="#6856f9"
         id="path36" />
    </g>
  </g>
</svg>
